<svg id="Layer_1" data-name="Layer 1" xmlns="http://www.w3.org/2000/svg" viewBox="0 0 555.44 555.44">
  <defs>
    <style>
      .cls-1 {
        fill: #fff;
      }

      .cls-2 {
        fill: #ed8d34;
      }

      .cls-3 {
        fill: #8e8e8e;
      }
    </style>
  </defs>
  <g id="icon">
    <g>
      <path class="cls-1" d="M171.73,322.18l10.56-22.74c9.74,6.3,24.57,10.56,38,10.56,14.61,0,20.1-3.86,20.1-9.95,0-17.86-66,.41-66-43.24,0-20.71,18.68-35.33,50.56-35.33,15,0,31.67,3.45,42,9.54L256.4,253.56a62.76,62.76,0,0,0-31.47-8.12c-14.22,0-20.31,4.46-20.31,10.15,0,18.68,66,.61,66,43.65,0,20.3-18.88,34.72-51.57,34.72-18.48,0-37.16-5.08-47.31-11.78"/>
      <path class="cls-2" d="M277.19,277.72c0-32.89,25.38-56.24,60.91-56.24,22.94,0,41,10,48.93,27.82l-24.57,13.19c-5.88-10.35-14.61-15-24.56-15-16,0-28.63,11.16-28.63,30.25S321.86,308,337.9,308c10,0,18.68-4.47,24.56-15L387,306.35C379.11,323.81,361,334,338.1,334c-35.53,0-60.91-23.35-60.91-56.24"/>
    </g>
    <path class="cls-3" d="M279.38,443c-91.11,0-165.23-74.13-165.23-165.24s74.12-165.24,165.23-165.24,165.24,74.13,165.24,165.24S370.49,443,279.38,443Zm0-325.11c-88.15,0-159.87,71.72-159.87,159.87s71.72,159.87,159.87,159.87,159.87-71.72,159.87-159.87S367.53,117.85,279.38,117.85Z"/>
  </g>
</svg>
