<svg id="Layer_1" data-name="Layer 1" xmlns="http://www.w3.org/2000/svg" viewBox="0 0 555.44 555.44">
  <defs>
    <style>
      .cls-1 {
        fill: #4d4d4d;
      }

      .cls-2 {
        fill: #ed8d34;
      }

      .cls-3 {
        fill: #8e8e8e;
      }
    </style>
  </defs>
  <g id="icon">
    <g>
      <path class="cls-1" d="M170.1,322.36l10.55-22.74c9.75,6.29,24.57,10.55,38,10.55,14.62,0,20.1-3.85,20.1-9.94,0-17.87-66,.4-66-43.25,0-20.71,18.68-35.33,50.55-35.33,15,0,31.68,3.45,42,9.55l-10.56,22.53a62.73,62.73,0,0,0-31.47-8.12c-14.21,0-20.3,4.47-20.3,10.15,0,18.68,66,.61,66,43.66,0,20.3-18.89,34.72-51.58,34.72-18.47,0-37.15-5.08-47.3-11.78"/>
      <path class="cls-2" d="M275.55,277.89c0-32.89,25.38-56.24,60.91-56.24,23,0,41,9.95,48.94,27.82l-24.57,13.2c-5.89-10.36-14.62-15-24.57-15-16,0-28.63,11.16-28.63,30.25s12.59,30.26,28.63,30.26c9.95,0,18.68-4.47,24.57-15l24.57,13.4c-7.92,17.46-26,27.62-48.94,27.62-35.53,0-60.91-23.36-60.91-56.25"/>
    </g>
    <path class="cls-3" d="M277.75,443.13c-91.11,0-165.24-74.13-165.24-165.24s74.13-165.23,165.24-165.23S443,186.78,443,277.89,368.86,443.13,277.75,443.13Zm0-325.11c-88.15,0-159.87,71.72-159.87,159.87S189.6,437.77,277.75,437.77s159.87-71.72,159.87-159.88S365.9,118,277.75,118Z"/>
  </g>
</svg>
