<svg id="Layer_1" data-name="Layer 1" xmlns="http://www.w3.org/2000/svg" viewBox="0 0 1527.3 372.33">
  <defs>
    <style>
      .cls-1 {
        fill: #ed8d34;
      }

      .cls-2 {
        fill: #fff;
      }
    </style>
  </defs>
  <g id="logo">
    <g>
      <path class="cls-1" d="M667.65,151h31.16V258.4H667.65Zm.82-23.76c0-8.25,5.94-14.65,14.76-14.65S698,118.6,698,126.69c0,8.75-5.93,15.15-14.76,15.15s-14.78-6.4-14.78-14.65Z"/>
      <path class="cls-1" d="M478.45,204.68c0-32.36,25-55.33,59.92-55.33,22.57,0,40.34,9.79,48.13,27.37l-24.17,13c-5.79-10.19-14.38-14.78-24.16-14.78-15.78,0-28.16,11-28.16,29.76s12.38,29.76,28.16,29.76c9.78,0,18.37-4.4,24.16-14.78l24.17,13.18C578.71,250,560.94,260,538.37,260,503.42,260,478.45,237.07,478.45,204.68Z"/>
      <path class="cls-1" d="M600.19,222.85V110.21h31.16V221.07c0,9.19,4.79,14.18,13.38,14.18a20.55,20.55,0,0,0,8.79-2l1.39,24.16a51,51,0,0,1-16.17,2.6C614.57,260,600.19,246.82,600.19,222.85Z"/>
      <path class="cls-1" d="M715.46,204.68c0-32.36,25-55.33,59.91-55.33,22.57,0,40.34,9.79,48.13,27.37l-24.16,13c-5.79-10.19-14.38-14.78-24.17-14.78-15.78,0-28.16,11-28.16,29.76s12.38,29.76,28.16,29.76c9.79,0,18.38-4.4,24.17-14.78l24.16,13.18C815.71,250,797.94,260,775.37,260,740.42,260,715.46,237.07,715.46,204.68Z"/>
      <path class="cls-1" d="M947.85,248.42l10.39-22.35c9.59,6.19,24.16,10.38,37.34,10.38,14.39,0,19.78-3.79,19.78-9.78,0-17.58-64.91.4-64.91-42.54,0-20.38,18.37-34.76,49.73-34.76,14.78,0,31.15,3.4,41.34,9.39l-10.39,22.15a61.65,61.65,0,0,0-31-8c-14,0-20,4.4-20,10,0,18.37,64.91.6,64.91,42.94,0,20-18.58,34.15-50.73,34.15C976.21,260,957.84,255,947.85,248.42Z"/>
      <polygon class="cls-1" points="865.96 231.03 876.41 220.82 904.98 258.39 942.58 258.39 898.29 202.13 948.65 150.94 911.5 150.94 865.96 194.09 865.96 110.2 834.81 110.2 834.81 258.39 865.96 258.39 865.96 231.03"/>
    </g>
    <g>
      <g>
        <path class="cls-2" d="M110.65,248.42,121,226.07c9.59,6.19,24.17,10.38,37.35,10.38,14.38,0,19.77-3.79,19.77-9.78,0-17.6-64.9.4-64.9-42.6,0-20.34,18.4-34.72,49.73-34.72,14.78,0,31.15,3.4,41.34,9.39l-10.39,22.17a61.67,61.67,0,0,0-31-8c-14,0-20,4.4-20,10,0,18.37,64.91.6,64.91,42.94,0,20-18.57,34.15-50.73,34.15C139,260,120.65,255,110.65,248.42Z"/>
        <path class="cls-2" d="M226,151h31.16V258.4H226Zm.82-23.76c0-8.25,5.93-14.65,14.76-14.65s14.76,6.06,14.76,14.15c0,8.75-5.93,15.15-14.76,15.15S226.81,135.44,226.81,127.19Z"/>
        <path class="cls-2" d="M344.4,253.21C338,257.8,328.62,260,319.24,260c-25.57,0-40.15-13-40.15-38.55V112.51h31.16v40.84h26.56v24H310.25v43.72c0,9.19,4.79,14.18,13.18,14.18a22.12,22.12,0,0,0,12.78-4Z"/>
        <path class="cls-2" d="M439.12,224.65l16.57,18c-10,11.39-25,17.38-44.33,17.38C374.21,260,350,236.66,350,204.71c0-32.16,24.37-55.33,57.52-55.33,30.36,0,55.32,20,55.52,54.33l-79.43,15.36c4.59,10.58,14.57,16,28.56,16C423.54,235.07,431.73,231.64,439.12,224.65Zm-58.47-23.17L433,191.3c-3-11-12.39-18.38-25.37-18.38C392,172.92,381.2,183.31,380.65,201.48Z"/>
      </g>
      <g>
        <path class="cls-2" d="M1047.76,256.45a4.58,4.58,0,1,1,0,.42A2.94,2.94,0,0,1,1047.76,256.45Z"/>
        <path class="cls-2" d="M1059.65,232.27c0-17,12.09-28.88,28.76-28.88,9,0,16.89,3.49,21.58,10.46l-4,2.94c-4.14-5.77-10.45-8.5-17.54-8.5-13.4,0-23.2,9.59-23.2,24s9.8,24,23.2,24c7.09,0,13.4-2.73,17.54-8.5l4,2.94c-4.69,6.86-12.53,10.46-21.58,10.46C1071.72,261.14,1059.65,249.15,1059.65,232.27Z"/>
        <path class="cls-2" d="M1112,232.27c0-16.89,12.1-28.88,28.44-28.88s28.44,12,28.44,28.88-12.1,28.87-28.44,28.87S1112,249.15,1112,232.27Zm51.32,0c0-14.28-9.8-24-22.88-24s-22.88,9.7-22.88,24,9.8,24,22.88,24S1163.35,246.54,1163.35,232.27Z"/>
        <path class="cls-2" d="M1272.19,227.47V260.7h-5.45V227.91c0-12.86-6.64-19.62-17.76-19.62-12.85,0-20.81,8.61-20.81,22.12V260.7h-5.44V227.91c0-12.86-6.65-19.62-17.76-19.62-12.86,0-20.81,8.61-20.81,22.12V260.7h-5.45V203.83h5.23v12.24c3.7-7.95,11.44-12.64,21.79-12.64s17.76,4.69,20.81,13.73c3.71-8.28,12-13.73,23-13.73C1263.26,203.39,1272.19,211.56,1272.19,227.47Z"/>
        <path class="cls-2" d="M1282.32,256.45a4.58,4.58,0,1,1,0,.42A2.94,2.94,0,0,1,1282.32,256.45Z"/>
        <path class="cls-2" d="M1351,203.83V260.7h-5.31V247.3c-4.47,8.83-13.08,13.84-23.32,13.84-16,0-28.11-11.88-28.11-28.87s12.1-28.88,28.11-28.88c10.14,0,18.63,5,23.21,13.62V203.83Zm-5.45,28.44c0-14.28-9.81-24-22.88-24s-22.88,9.7-22.88,24,9.8,24,22.88,24,22.88-9.73,22.88-24Z"/>
        <path class="cls-2" d="M1416.65,203.83V260.7h-5.23V248.5c-3.7,7.95-11.44,12.64-21.46,12.64-14.49,0-23.76-8.17-23.76-24.08V203.83h5.45v32.79c0,12.86,6.87,19.62,18.74,19.62,12.86,0,20.81-8.61,20.81-22.12V203.83Z"/>
      </g>
    </g>
  </g>
</svg>
